<svg width="36" height="35" viewBox="0 0 36 35" fill="none" xmlns="http://www.w3.org/2000/svg">
<g clip-path="url(#clip0_16_197)">
<path fill-rule="evenodd" clip-rule="evenodd" d="M17.8114 0C7.96214 0 0 8.02083 0 17.9437C0 25.8756 5.10161 32.5897 12.1789 34.9661C13.0638 35.1447 13.3879 34.58 13.3879 34.1049C13.3879 33.689 13.3587 32.2631 13.3587 30.7774C8.40401 31.8471 7.37224 28.6384 7.37224 28.6384C6.57599 26.5588 5.3962 26.0243 5.3962 26.0243C3.77453 24.9251 5.51432 24.9251 5.51432 24.9251C7.31318 25.044 8.25708 26.767 8.25708 26.767C9.84922 29.4999 12.4148 28.7277 13.4469 28.2523C13.5942 27.0936 14.0664 26.2916 14.5677 25.846C10.6159 25.4301 6.45823 23.8853 6.45823 16.9929C6.45823 15.0321 7.16552 13.428 8.28625 12.1804C8.10943 11.7348 7.49 9.8926 8.46344 7.42693C8.46344 7.42693 9.96734 6.95151 13.3583 9.2688C14.8101 8.87602 16.3074 8.67621 17.8114 8.67453C19.3153 8.67453 20.8483 8.88271 22.264 9.2688C25.6554 6.95151 27.1593 7.42693 27.1593 7.42693C28.1327 9.8926 27.5129 11.7348 27.3361 12.1804C28.4864 13.428 29.1645 15.0321 29.1645 16.9929C29.1645 23.8853 25.0068 25.4002 21.0255 25.846C21.6745 26.4104 22.2345 27.4797 22.2345 29.1732C22.2345 31.5795 22.2053 33.5107 22.2053 34.1046C22.2053 34.58 22.5298 35.1447 23.4143 34.9665C30.4916 32.5894 35.5932 25.8756 35.5932 17.9437C35.6223 8.02083 27.631 0 17.8114 0Z" fill="#24292F"/>
</g>
<defs>
<clipPath id="clip0_16_197">
<rect width="35.7292" height="35" fill="white"/>
</clipPath>
</defs>
</svg>
